<svg xmlns="http://www.w3.org/2000/svg" viewBox="0 0 30.73 29.97">
  <g fill="#24292e">
    <path d="M16 .62a15.36 15.36 0 0 0-4.86 29.94c.77.14 1.06-.32 1.06-.73v-2.86c-3.88.71-4.88-.97-5.2-1.8A5.48 5.48 0 0 0 5.44 23c-.54-.29-1.31-1 0-1a3.07 3.07 0 0 1 2.36 1.57 3.28 3.28 0 0 0 4.47 1.27 3.3 3.3 0 0 1 1-2.06c-3.41-.38-7-1.7-7-7.58a6 6 0 0 1 1.58-4.13A5.5 5.5 0 0 1 8 7s1.29-.41 4.23 1.57a14.44 14.44 0 0 1 7.68 0C22.82 6.55 24.11 7 24.11 7a5.56 5.56 0 0 1 .15 4.07 5.93 5.93 0 0 1 1.57 4.13c0 5.89-3.59 7.2-7 7.58a3.65 3.65 0 0 1 1 2.85v4.22c0 .52.29.89 1.06.73A15.37 15.37 0 0 0 16 .62z" transform="translate(-.63 -.62)"/>
    <path d="M12.76 17.79a.6.6 0 0 1-.09.36.84.84 0 0 1-.28.23 1.46 1.46 0 0 1-.28.13 3.29 3.29 0 0 1-.37.1 2.63 2.63 0 0 1-.42.07 3.25 3.25 0 0 1-.44 0 3.81 3.81 0 0 1-1.08-.16 2.44 2.44 0 0 1-.87-.47 2.22 2.22 0 0 1-.59-.79 2.7 2.7 0 0 1-.22-1.1 2.55 2.55 0 0 1 .24-1.14 2.3 2.3 0 0 1 .64-.78 2.67 2.67 0 0 1 .89-.49 3.57 3.57 0 0 1 1-.16 2.38 2.38 0 0 1 1.2.25.71.71 0 0 1 .45.63.61.61 0 0 1-.11.36.91.91 0 0 1-.24.24 2.62 2.62 0 0 0-.5-.23 1.78 1.78 0 0 0-.67-.12 1.49 1.49 0 0 0-1.02.38 1.46 1.46 0 0 0-.4 1.07 1.79 1.79 0 0 0 .11.64 1.35 1.35 0 0 0 .29.44 1.24 1.24 0 0 0 .43.25 1.44 1.44 0 0 0 .51.08 1.42 1.42 0 0 0 .31 0 .73.73 0 0 0 .21-.07v-.75h-.86a1.85 1.85 0 0 1-.09-.23 1.06 1.06 0 0 1 0-.31.53.53 0 0 1 .13-.41.45.45 0 0 1 .34-.13h1.35a.48.48 0 0 1 .37.13.5.5 0 0 1 .14.37zM15.08 18.54a1.3 1.3 0 0 1-.28.05h-.37a1.61 1.61 0 0 1-.33 0 .54.54 0 0 1-.23-.1.44.44 0 0 1-.15-.2 1.09 1.09 0 0 1 0-.34v-4.22h.64a1.61 1.61 0 0 1 .33 0 .44.44 0 0 1 .23.1.35.35 0 0 1 .08.17 1 1 0 0 1 .05.33zM17.49 16.65l-.64-.24a2.23 2.23 0 0 1-.5-.31 1.3 1.3 0 0 1-.32-.41 1.4 1.4 0 0 1-.11-.6 1.31 1.31 0 0 1 .52-1.09 2.36 2.36 0 0 1 1.47-.41 4.26 4.26 0 0 1 .64.05 1.73 1.73 0 0 1 .5.15.91.91 0 0 1 .34.25.61.61 0 0 1 .12.37.69.69 0 0 1-.1.36 1.09 1.09 0 0 1-.23.25 1.89 1.89 0 0 0-.47-.2 2.69 2.69 0 0 0-.65-.08 1 1 0 0 0-.53.1.29.29 0 0 0-.17.25.26.26 0 0 0 .11.2 1.32 1.32 0 0 0 .31.14l.42.13a3.14 3.14 0 0 1 1.16.61 1.32 1.32 0 0 1 .4 1 1.35 1.35 0 0 1-.53 1.1 2.61 2.61 0 0 1-1.58.42 3.66 3.66 0 0 1-.68-.06 2 2 0 0 1-.55-.18 1 1 0 0 1-.37-.29.61.61 0 0 1-.13-.39.6.6 0 0 1 .13-.4 1 1 0 0 1 .3-.25 2.19 2.19 0 0 0 .55.3 1.78 1.78 0 0 0 .7.13.91.91 0 0 0 .55-.12.33.33 0 0 0 .16-.28.26.26 0 0 0-.12-.24 1.52 1.52 0 0 0-.36-.17zM20.2 14.85a.9.9 0 0 1-.11-.24 1.13 1.13 0 0 1-.05-.32.62.62 0 0 1 .14-.45.52.52 0 0 1 .37-.13H24a1 1 0 0 1 .1.24 1.07 1.07 0 0 1 .05.32.61.61 0 0 1-.14.44.53.53 0 0 1-.37.14h-.84v3.69a1.3 1.3 0 0 1-.28.05h-.37a1.61 1.61 0 0 1-.33 0 .54.54 0 0 1-.23-.1.44.44 0 0 1-.15-.2 1.09 1.09 0 0 1 0-.34v-3.1z" transform="translate(-.63 -.62)"/>
  </g>
</svg>
