<svg preserveAspectRatio="xMinYMin meet" width="48" height="48" xmlns="http://www.w3.org/2000/svg">
  <g>
    <g fill="none" fill-rule="evenodd">
      <rect fill="#FFF" x="1" y="1" width="46" height="46" rx="4"/>
      <path d="M0 4.00989318C0 1.79529033 1.79405245 0 4.00989318 0H43.9901068C46.2047097 0 48 1.79405245 48 4.00989318V43.9901068C48 46.2047097 46.2059475 48 43.9901068 48H4.00989318C1.79529033 48 0 46.2059475 0 43.9901068V4.00989318zM19 18.3h6.5v3.266C26.437 19.688 28.838 18 32.445 18 39.359 18 41 21.738 41 28.597V41.3h-7V30.159c0-3.906-.937-6.109-3.32-6.109-3.305 0-4.68 2.375-4.68 6.109V41.3h-7v-23zM7 41h7V18H7v23zm8-30.5c0 2.485-2.015 4.5-4.5 4.5S6 12.985 6 10.5 8.015 6 10.5 6 15 8.015 15 10.5z" fill="#0077B5"/>
    </g>
  </g>
</svg>
